<svg width="40" height="42" viewBox="0 0 40 42" fill="none" xmlns="http://www.w3.org/2000/svg">
<path d="M19.9833 3C10.7833 3 3.33325 10.6632 3.33325 20.1053C3.33325 29.5474 10.7833 37.2105 19.9833 37.2105C29.1999 37.2105 36.6666 29.5474 36.6666 20.1053C36.6666 10.6632 29.1999 3 19.9833 3ZM19.9999 33.7895C12.6333 33.7895 6.66659 27.6658 6.66659 20.1053C6.66659 12.5447 12.6333 6.42105 19.9999 6.42105C27.3666 6.42105 33.3333 12.5447 33.3333 20.1053C33.3333 27.6658 27.3666 33.7895 19.9999 33.7895Z" fill="#247BA0"/>
<path d="M20.8333 11.5525H18.3333V21.8156L27.0833 27.2038L28.3333 25.0999L20.8333 20.5328V11.5525Z" fill="#247BA0"/>
</svg>

